<?xml version="1.0" encoding="UTF-8" standalone="no"?>
<!-- Created with Inkscape (http://www.inkscape.org/) -->

<svg
   xmlns:dc="http://purl.org/dc/elements/1.1/"
   xmlns:cc="http://creativecommons.org/ns#"
   xmlns:rdf="http://www.w3.org/1999/02/22-rdf-syntax-ns#"
   xmlns:svg="http://www.w3.org/2000/svg"
   xmlns="http://www.w3.org/2000/svg"
   xmlns:sodipodi="http://sodipodi.sourceforge.net/DTD/sodipodi-0.dtd"
   xmlns:inkscape="http://www.inkscape.org/namespaces/inkscape"
   width="200"
   height="200"
   id="svg2"
   version="1.1"
   inkscape:version="0.48.5 r10040"
   sodipodi:docname="box3.svg">
  <defs
     id="defs4" />
  <sodipodi:namedview
     id="base"
     pagecolor="#ffffff"
     bordercolor="#666666"
     borderopacity="1.0"
     inkscape:pageopacity="0.0"
     inkscape:pageshadow="2"
     inkscape:zoom="1.979899"
     inkscape:cx="-11.813521"
     inkscape:cy="94.941819"
     inkscape:document-units="px"
     inkscape:current-layer="layer3"
     showgrid="false"
     inkscape:window-width="1366"
     inkscape:window-height="705"
     inkscape:window-x="1912"
     inkscape:window-y="109"
     inkscape:window-maximized="1"
     showguides="true"
     inkscape:guide-bbox="true">
    <sodipodi:guide
       orientation="1,0"
       position="-95,65.714286"
       id="guide3778" />
  </sodipodi:namedview>
  <metadata
     id="metadata7">
    <rdf:RDF>
      <cc:Work
         rdf:about="">
        <dc:format>image/svg+xml</dc:format>
        <dc:type
           rdf:resource="http://purl.org/dc/dcmitype/StillImage" />
        <dc:title />
      </cc:Work>
    </rdf:RDF>
  </metadata>
  <g
     inkscape:label="Layer 1"
     inkscape:groupmode="layer"
     id="layer1"
     transform="translate(0,-852.36218)"
     style="opacity:1;display:inline"
     sodipodi:insensitive="true">
    <rect
       style="fill:#1a1a1a;fill-opacity:1;stroke:#a4a3a0;stroke-width:0.03574226000000000;stroke-linecap:round;stroke-linejoin:round;stroke-miterlimit:4;stroke-opacity:1;stroke-dasharray:none;stroke-dashoffset:0"
       id="rect2985"
       width="203.8835"
       height="201.63348"
       x="-1.1912535"
       y="851.69025" />
  </g>
  <g
     inkscape:groupmode="layer"
     id="layer3"
     inkscape:label="Layer#1"
     style="opacity:0.40384615">
    <text
       xml:space="preserve"
       style="font-size:161.36781311px;font-style:normal;font-variant:normal;font-weight:normal;font-stretch:normal;line-height:125%;letter-spacing:0px;word-spacing:0px;fill:#0b0b0b;fill-opacity:1;stroke:#000000;stroke-opacity:1;font-family:Impact;-inkscape-font-specification:Impact"
       x="11.055261"
       y="163.13486"
       id="text4267"
       sodipodi:linespacing="125%"><tspan
         sodipodi:role="line"
         id="tspan4269"
         x="11.055261"
         y="163.13486">UX</tspan></text>
  </g>
  <g
     inkscape:groupmode="layer"
     id="layer2"
     inkscape:label="Layer"
     sodipodi:insensitive="true">
    <text
       xml:space="preserve"
       style="font-size:43.74953461px;font-style:normal;font-variant:normal;font-weight:normal;font-stretch:normal;line-height:125%;letter-spacing:0px;word-spacing:0px;fill:#f6d700;fill-opacity:1;stroke:none;font-family:Impact;-inkscape-font-specification:Impact"
       x="-2862.0283"
       y="29.26475"
       id="text2985"
       sodipodi:linespacing="125%"
       transform="scale(0.46520224,2.1496027)"><tspan
         sodipodi:role="line"
         id="tspan2987"
         x="-2862.0283"
         y="29.26475"
         style="font-size:78.74916077px;font-style:normal;font-variant:normal;font-weight:normal;font-stretch:normal;fill:#f6d700;fill-opacity:1;font-family:Impact;-inkscape-font-specification:Impact">Updating Site</tspan></text>
    <text
       xml:space="preserve"
       style="font-size:16px;font-style:normal;font-weight:normal;line-height:125%;letter-spacing:0px;word-spacing:0px;fill:#ffffff;fill-opacity:1;stroke:none;font-family:Sans"
       x="45.961937"
       y="29.28422"
       id="text4056"
       sodipodi:linespacing="125%"><tspan
         sodipodi:role="line"
         id="tspan4058"
         x="45.961937"
         y="29.28422"
         style="font-size:20px;font-style:normal;font-variant:normal;font-weight:bold;font-stretch:normal;font-family:Aharoni;-inkscape-font-specification:Aharoni Bold">Effectiveness</tspan></text>
    <text
       xml:space="preserve"
       style="font-size:20px;font-style:normal;font-variant:normal;font-weight:bold;font-stretch:normal;line-height:125%;letter-spacing:0px;word-spacing:0px;fill:#ffffff;fill-opacity:1;stroke:none;font-family:Aharoni;-inkscape-font-specification:Aharoni Bold"
       x="5.5558348"
       y="74.236008"
       id="text4060"
       sodipodi:linespacing="125%"><tspan
         sodipodi:role="line"
         id="tspan4062"
         x="5.5558348"
         y="74.236008">Usefullness</tspan></text>
    <text
       xml:space="preserve"
       style="font-size:20px;font-style:normal;font-variant:normal;font-weight:bold;font-stretch:normal;line-height:125%;letter-spacing:0px;word-spacing:0px;fill:#ffffff;fill-opacity:1;stroke:none;font-family:Aharoni;-inkscape-font-specification:Aharoni Bold"
       x="7.5761504"
       y="136.3604"
       id="text4064"
       sodipodi:linespacing="125%"><tspan
         sodipodi:role="line"
         id="tspan4066"
         x="7.5761504"
         y="136.3604"
         style="font-size:20px;font-style:normal;font-variant:normal;font-weight:bold;font-stretch:normal;fill:#ffffff;font-family:Aharoni;-inkscape-font-specification:Aharoni Bold">Accessibility</tspan></text>
    <text
       xml:space="preserve"
       style="font-size:20px;font-style:normal;font-variant:normal;font-weight:bold;font-stretch:normal;line-height:125%;letter-spacing:0px;word-spacing:0px;fill:#ffffff;fill-opacity:1;stroke:none;font-family:Aharoni;-inkscape-font-specification:Aharoni Bold"
       x="81.822365"
       y="174.2411"
       id="text4068"
       sodipodi:linespacing="125%"><tspan
         sodipodi:role="line"
         id="tspan4070"
         x="81.822365"
         y="174.2411">Satisfaction</tspan></text>
    <text
       xml:space="preserve"
       style="font-size:20px;font-style:normal;font-variant:normal;font-weight:bold;font-stretch:normal;line-height:125%;letter-spacing:0px;word-spacing:0px;fill:#ffffff;fill-opacity:1;stroke:none;font-family:Aharoni;-inkscape-font-specification:Aharoni Bold"
       x="105.56094"
       y="102.5203"
       id="text4072"
       sodipodi:linespacing="125%"><tspan
         sodipodi:role="line"
         id="tspan4074"
         x="105.56094"
         y="102.5203">Efficiency</tspan></text>
    <g
       id="g4137"
       style="fill:#f6d700;fill-opacity:1">
      <path
         inkscape:connector-curvature="0"
         d="m 61.011257,32.517799 c 0.141682,0.7511 0.326382,1.491851 0.468099,2.243133 0.323122,1.681349 0.409889,3.396799 0.397145,5.105241 -0.04715,1.880281 -0.547737,3.220898 -1.631696,4.753136 -0.24874,0.351608 -0.528448,0.680252 -0.792671,1.020377 -1.505051,1.823379 -3.32905,3.328833 -5.166347,4.799569 0,0 -2.150047,0.862176 -2.150047,0.862176 l 0,0 c 1.833638,-1.450346 3.664085,-2.927051 5.161428,-4.737742 0.256631,-0.328609 0.528556,-0.645827 0.769894,-0.985827 0.583628,-0.822223 1.126274,-1.752459 1.395582,-2.732089 0.182775,-0.664857 0.199534,-1.201573 0.260623,-1.884286 0.0099,-1.679923 -0.106752,-3.364406 -0.471835,-5.008425 -0.16123,-0.736212 -0.365346,-1.463099 -0.577111,-2.185831 0,0 2.336936,-1.249432 2.336936,-1.249432 z"
         id="path4096"
         style="fill:#f6d700;fill-opacity:1;stroke:none" />
      <path
         inkscape:connector-curvature="0"
         d="m 52.939194,44.923523 c -0.291253,0.774611 -0.432281,1.594025 -0.640279,2.392727 -0.236221,0.771885 -0.331726,1.573677 -0.447797,2.369453 -0.08662,0.751572 -0.183904,1.502051 -0.258253,2.255023 -0.0067,0.141183 -0.118125,1.108272 0.01922,1.124665 0.04285,0.0051 0.0831,-0.02333 0.12465,-0.035 0.08249,-0.02645 0.168658,-0.04338 0.247467,-0.07934 0.284045,-0.129606 0.541024,-0.311987 0.816212,-0.459468 0.695658,-0.372823 1.397033,-0.732631 2.089138,-1.112764 1.501683,-0.830689 3.021928,-1.629504 4.517176,-2.471661 -0.533005,0.305597 -2.129271,1.227132 -1.599014,0.916791 0.87643,-0.512946 1.757587,-1.017775 2.637561,-1.524618 0.145784,-0.08397 0.585278,-0.332114 0.439691,-0.247803 -0.601954,0.348594 -2.413099,1.385208 -1.808815,1.040669 0.844111,-0.481279 1.687581,-0.963707 2.528299,-1.450891 0.648762,-0.375949 -1.30162,0.744789 -1.95243,1.117183 0.23218,-0.138162 0.453578,-0.292425 0.673024,-0.449608 0,0 2.425739,-0.963551 2.425739,-0.963551 l 0,0 c -0.218385,0.168454 -0.438459,0.334864 -0.676359,0.475539 -0.826062,0.48019 -1.652348,0.959994 -2.478186,1.440571 -0.624131,0.363198 2.50181,-1.443593 1.873067,-1.088437 -0.859787,0.485666 -1.710116,0.987893 -2.56624,1.479988 -2.663828,1.53115 7.649456,-4.434535 -1.442797,0.824971 -1.488333,0.814003 -2.986563,1.61002 -4.47028,2.432663 -0.716488,0.395104 -1.436543,0.782355 -2.157672,1.168845 -0.268601,0.143958 -0.615342,0.363876 -0.928569,0.433848 -0.107622,0.02404 -0.220388,0.0084 -0.330582,0.01261 -0.07803,-0.0403 -0.168713,-0.06226 -0.234089,-0.120893 -0.28142,-0.252413 -0.05363,-0.984154 -0.06202,-1.313265 0.07669,-0.757675 0.187614,-1.511424 0.260498,-2.269398 0.119106,-0.806638 0.210239,-1.622723 0.449079,-2.405184 0.226893,-0.780717 0.364951,-1.58125 0.560161,-2.370099 0,0 2.392401,-1.123561 2.392401,-1.123561 z"
         id="path4110"
         style="fill:#f6d700;fill-opacity:1;stroke:none" />
    </g>
    <path
       style="fill:#f6a400;fill-opacity:1;stroke:none"
       id="path4096-3"
       d="m 40.855958,80.959635 c -0.141682,1.222374 -0.326382,2.427907 -0.468099,3.650578 -0.323122,2.736304 -0.409889,5.528107 -0.397145,8.308499 0.04715,3.060054 0.547737,5.241841 1.631696,7.735478 0.24874,0.57223 0.528448,1.10707 0.792671,1.66061 1.505051,2.96746 3.32905,5.41749 5.166347,7.81104 0,0 2.150047,1.40314 2.150047,1.40314 l 0,0 c -1.833638,-2.36035 -3.664085,-4.76362 -5.161428,-7.71042 -0.256631,-0.53479 -0.528556,-1.05105 -0.769894,-1.60438 -0.583628,-1.33812 -1.126274,-2.852035 -1.395582,-4.44633 -0.182775,-1.082008 -0.199534,-1.95549 -0.260623,-3.066564 -0.0099,-2.733989 0.106752,-5.475394 0.471835,-8.150946 0.16123,-1.198146 0.365346,-2.381115 0.577111,-3.557322 0,0 -2.336936,-2.033383 -2.336936,-2.033383 z"
       inkscape:connector-curvature="0" />
    <path
       style="fill:#f6a400;fill-opacity:1;stroke:none"
       id="path4110-0"
       d="m 48.76153,103.54393 c 0.318115,0.90424 0.472151,1.86079 0.699333,2.79315 0.258008,0.90107 0.362321,1.83704 0.489098,2.76598 0.09461,0.87736 0.200865,1.75342 0.282072,2.63241 0.0073,0.16481 0.12902,1.29374 -0.02099,1.31287 -0.0468,0.006 -0.09076,-0.0272 -0.136147,-0.0409 -0.0901,-0.0309 -0.184213,-0.0507 -0.270291,-0.0926 -0.310243,-0.15129 -0.590923,-0.3642 -0.891492,-0.53636 -0.75982,-0.43521 -1.525884,-0.85524 -2.281823,-1.29898 -1.640185,-0.96971 -3.300645,-1.9022 -4.933802,-2.88529 0.582165,0.35674 2.325657,1.43249 1.746494,1.07021 -0.957265,-0.59879 -1.919692,-1.1881 -2.880828,-1.77976 -0.159229,-0.0981 -0.639259,-0.38769 -0.480244,-0.28927 0.657473,0.40692 2.635663,1.61702 1.975645,1.21482 -0.921965,-0.56182 -1.843229,-1.12498 -2.761488,-1.69369 -0.708598,-0.43887 1.42167,0.86943 2.132506,1.30414 -0.253595,-0.16128 -0.495413,-0.34137 -0.735098,-0.52486 0,0 -2.649469,-1.1248 -2.649469,-1.1248 l 0,0 c 0.238527,0.19664 0.478899,0.3909 0.738741,0.55513 0.902251,0.56055 1.804746,1.12064 2.706752,1.68165 0.681696,0.42398 -2.732555,-1.68518 -2.045822,-1.27059 0.939086,0.56694 1.867842,1.15322 2.802928,1.72766 2.909517,1.78739 -8.354977,-5.17665 1.575868,0.96303 1.625604,0.95024 3.262018,1.87946 4.882581,2.83978 0.782571,0.46122 1.569037,0.91328 2.356677,1.36444 0.293375,0.16806 0.672096,0.42478 1.014213,0.50646 0.117548,0.028 0.240714,0.009 0.361072,0.0147 0.08523,-0.047 0.184273,-0.0727 0.255679,-0.14112 0.307376,-0.29467 0.05858,-1.14886 0.06774,-1.53305 -0.08376,-0.88447 -0.204918,-1.76436 -0.284524,-2.64918 -0.130091,-0.94164 -0.22963,-1.89429 -0.490498,-2.80769 -0.24782,-0.91137 -0.398611,-1.84587 -0.611826,-2.76674 0,0 -2.613055,-1.31159 -2.613055,-1.31159 z"
       inkscape:connector-curvature="0" />
    <path
       style="fill:#f67f00;fill-opacity:1;stroke:none"
       id="path4096-5"
       d="m 49.047518,141.62026 c 0.05604,1.10226 0.05704,2.20515 0.113093,3.30771 0.118242,2.46956 0.532017,4.90396 1.063752,7.29363 0.625189,2.61838 1.634448,4.32135 3.405593,6.08812 0.406432,0.40541 0.843292,0.76779 1.264936,1.15168 2.367283,2.02695 5.023359,3.49642 7.68499,4.91258 0,0 2.855106,0.45359 2.855106,0.45359 l 0,0 c -2.651053,-1.38887 -5.306222,-2.8158 -7.660369,-4.82767 -0.409002,-0.37043 -0.833016,-0.71952 -1.227007,-1.11128 -0.952788,-0.94738 -1.888767,-2.06049 -2.50983,-3.33879 -0.421505,-0.86755 -0.603944,-1.61379 -0.884004,-2.54908 -0.519684,-2.35067 -0.888032,-4.75217 -0.944361,-7.18416 -0.02795,-1.08829 -0.0014,-2.17856 0.03578,-3.26567 0,0 -3.197673,-0.93066 -3.197673,-0.93066 z"
       inkscape:connector-curvature="0" />
    <path
       style="fill:#f67f00;fill-opacity:1;stroke:none"
       id="path4110-2"
       d="m 62.220471,159.48621 c 0.619287,0.54894 1.12666,1.20765 1.68358,1.81678 0.569351,0.57222 1.028241,1.23662 1.502506,1.88608 0.42758,0.62413 0.864078,1.24231 1.281462,1.87341 0.07186,0.12172 0.622018,0.92484 0.508225,1.00347 -0.0355,0.0246 -0.08427,0.0186 -0.126646,0.0269 -0.08538,0.0148 -0.169371,0.0405 -0.255868,0.0454 -0.311692,0.0181 -0.6241,-0.0232 -0.936314,-0.0251 -0.789246,-0.005 -1.577474,0.005 -2.366994,-0.008 -1.715808,-0.0333 -3.43314,-0.0297 -5.148613,-0.0761 0.614029,0.0213 2.455896,0.0907 1.842081,0.0639 -1.014535,-0.0443 -2.02946,-0.0792 -3.044278,-0.11641 -0.168116,-0.006 -0.672635,-0.0203 -0.504524,-0.0138 0.695076,0.0271 2.780692,0.0979 2.08545,0.0755 -0.971168,-0.0314 -1.942307,-0.0641 -2.913234,-0.10224 -0.749239,-0.0295 1.498785,0.0507 2.248175,0.0761 -0.269826,-0.0137 -0.537641,-0.0468 -0.805094,-0.0833 0,0 -2.594955,0.2808 -2.594955,0.2808 l 0,0 c 0.271778,0.047 0.544094,0.0914 0.820154,0.10464 0.954699,0.0388 1.909419,0.0772 2.8641,0.11651 0.721506,0.0297 -2.8864,-0.10815 -2.164574,-0.0877 0.987081,0.0279 1.973529,0.0749 2.960372,0.11025 3.070557,0.10992 -8.835016,-0.34895 1.661067,0.0557 1.696207,0.0247 3.392768,0.0289 5.088931,0.0635 0.818073,0.0148 1.635632,0.0209 2.453787,0.0259 0.304743,0.002 0.714051,0.0344 1.023702,-0.05 0.106351,-0.0292 0.198801,-0.0955 0.298204,-0.14325 0.05017,-0.0721 0.120111,-0.13384 0.150538,-0.21621 0.130971,-0.35462 -0.41218,-0.8953 -0.558455,-1.19023 -0.421649,-0.63416 -0.871737,-1.24887 -1.290162,-1.88508 -0.482021,-0.65765 -0.943719,-1.33672 -1.520326,-1.91708 -0.565228,-0.58439 -1.061156,-1.22779 -1.602167,-1.83418 0,0 -2.640199,0.12375 -2.640199,0.12375 z"
       inkscape:connector-curvature="0" />
    <path
       style="fill:#f65900;fill-opacity:1;stroke:none"
       id="path4096-3-6"
       d="m 147.90508,159.81061 c 0.66954,-1.41969 1.38743,-2.80082 2.05714,-4.22085 1.50641,-3.17546 2.73237,-6.51795 3.82634,-9.88865 1.16167,-3.72373 1.39192,-6.57599 0.99982,-10.05214 -0.09,-0.79769 -0.23453,-1.56321 -0.35179,-2.34482 -0.74206,-4.22753 -2.0991,-7.96349 -3.49574,-11.63673 0,0 -2.19258,-2.60657 -2.19258,-2.60657 l 0,0 c 1.40521,3.63149 2.7892,7.31361 3.52962,11.51287 0.11503,0.7557 0.25704,1.49544 0.34508,2.26713 0.21292,1.86617 0.30316,3.92782 0.0113,5.97128 -0.19807,1.38684 -0.52541,2.45117 -0.89089,3.8218 -1.07895,3.31339 -2.32317,6.5822 -3.85907,9.6664 -0.68489,1.38211 -1.41862,2.72773 -2.15947,4.06191 0,0 2.1802,3.44837 2.1802,3.44837 z"
       inkscape:connector-curvature="0" />
    <path
       style="fill:#f65900;fill-opacity:1;stroke:none"
       id="path4110-0-1"
       d="m 146.26216,124.41717 c -0.0416,-0.95767 0.0891,-1.91769 0.14268,-2.87583 0.015,-0.93716 0.18725,-1.86305 0.33595,-2.78873 0.16449,-0.86698 0.31744,-1.73611 0.49521,-2.60075 0.0412,-0.15973 0.25258,-1.27539 0.40168,-1.25009 0.0465,0.008 0.079,0.0524 0.11838,0.0787 0.0772,0.0558 0.16153,0.10206 0.23171,0.16717 0.25288,0.23493 0.45956,0.52022 0.69711,0.77231 0.60053,0.63727 1.21144,1.26182 1.80578,1.90612 1.28752,1.40456 2.60527,2.77941 3.88219,4.19474 -0.45335,-0.51055 -1.8089,-2.0466 -1.36004,-1.53163 0.7419,0.85117 1.4915,1.69477 2.23917,2.54024 0.12385,0.14014 0.49898,0.55675 0.37544,0.41636 -0.51082,-0.58044 -2.0519,-2.31326 -1.53727,-1.73659 0.71888,0.80553 1.43668,1.61215 2.15,2.4232 0.55046,0.62587 -1.10759,-1.24511 -1.6614,-1.86766 0.19578,0.22803 0.37482,0.47063 0.55082,0.71586 0,0 2.20817,1.84631 2.20817,1.84631 l 0,0 c -0.17108,-0.25748 -0.34461,-0.51322 -0.5455,-0.74588 -0.70038,-0.79859 -1.40113,-1.59681 -2.10113,-2.39577 -0.52904,-0.60381 2.12479,2.40665 1.5882,1.81036 -0.73376,-0.81541 -1.45202,-1.64632 -2.17978,-2.46775 -2.26441,-2.55588 6.4897,7.38155 -1.22793,-1.37948 -1.27924,-1.3817 -2.57492,-2.74643 -3.84642,-4.13631 -0.61473,-0.66876 -1.23585,-1.32989 -1.85835,-1.9905 -0.23187,-0.24608 -0.51963,-0.60179 -0.82324,-0.77938 -0.10433,-0.061 -0.2277,-0.0786 -0.34121,-0.11901 -0.0952,0.0202 -0.19744,0.016 -0.28565,0.0607 -0.37975,0.19261 -0.38999,1.08223 -0.51036,1.44719 -0.17689,0.87064 -0.31674,1.74775 -0.49774,2.61751 -0.14921,0.9388 -0.33086,1.87925 -0.34674,2.82904 -0.0278,0.94405 -0.1551,1.88204 -0.21874,2.82513 0,0 2.11903,2.01445 2.11903,2.01445 z"
       inkscape:connector-curvature="0" />
    <path
       style="fill:#f64300;fill-opacity:1;stroke:none"
       id="path4096-3-6-6"
       d="m 159.05685,85.058377 c 0.18236,-1.740138 0.42765,-3.457254 0.61006,-5.197811 0.41689,-3.895433 0.48876,-7.864719 0.41604,-11.815647 -0.12817,-4.34765 -0.8992,-7.437516 -2.52517,-10.958153 -0.37314,-0.807891 -0.79058,-1.56201 -1.18586,-2.343021 -2.24799,-4.18501 -4.95,-7.627899 -7.67029,-10.99026 0,0 -3.1561,-1.948218 -3.1561,-1.948218 l 0,0 c 2.71431,3.315239 5.42483,6.691567 7.66118,10.847381 0.38386,0.754518 0.78962,1.482386 1.1516,2.263589 0.87537,1.889171 1.69453,4.029053 2.11747,6.288976 0.28704,1.533746 0.32846,2.774697 0.43899,4.352352 0.0678,3.885057 -0.0487,7.783345 -0.52781,11.593343 -0.21127,1.706125 -0.48524,3.391588 -0.77049,5.067588 0,0 3.44035,2.839895 3.44035,2.839895 z"
       inkscape:connector-curvature="0" />
    <path
       style="fill:#f64300;fill-opacity:1;stroke:none"
       id="path4110-0-1-8"
       d="m 147.24545,50.033492 c -0.56178,-0.974133 -0.96498,-2.057472 -1.4387,-3.091066 -0.49806,-0.987785 -0.84408,-2.061231 -1.21181,-3.119868 -0.32103,-1.00713 -0.65393,-2.009355 -0.96136,-3.022271 -0.0491,-0.192303 -0.46241,-1.488131 -0.31025,-1.554094 0.0476,-0.02046 0.10189,0.0058 0.15282,0.0089 0.10215,0.01044 0.20562,0.0065 0.30631,0.03098 0.36297,0.08861 0.71058,0.258432 1.06869,0.374461 0.90531,0.293303 1.81329,0.566894 2.71671,0.871372 1.96187,0.668794 3.93555,1.287836 5.89347,1.974441 -0.69953,-0.252184 -2.79635,-1.016115 -2.09857,-0.756535 1.15332,0.429048 2.30966,0.845422 3.46523,1.264943 0.19147,0.06959 0.76711,0.27215 0.57579,0.20211 -0.79103,-0.289549 -3.16749,-1.14398 -2.37498,-0.860728 1.10704,0.395659 2.21367,0.793123 3.31857,1.197989 0.85262,0.312422 -1.70783,-0.61379 -2.56175,-0.920672 0.30621,0.116788 0.60486,0.259158 0.90212,0.40616 0,0 3.05737,0.559615 3.05737,0.559615 l 0,0 c -0.2994,-0.16284 -0.6001,-0.322345 -0.91359,-0.4408 -1.08608,-0.399874 -2.1723,-0.79913 -3.25823,-1.199626 -0.8207,-0.302662 3.28613,1.196327 2.46252,0.906196 -1.12623,-0.396754 -2.24655,-0.819295 -3.37051,-1.226052 -3.4972,-1.265634 10.05366,3.686255 -1.89289,-0.679527 -1.94169,-0.650055 -3.88937,-1.272206 -5.82836,-1.935597 -0.93569,-0.317383 -1.87314,-0.622842 -2.81159,-0.926903 -0.34955,-0.113271 -0.81086,-0.306381 -1.18957,-0.303696 -0.13011,9.67e-4 -0.25419,0.05901 -0.38159,0.08715 -0.0772,0.08007 -0.17444,0.139034 -0.23185,0.240359 -0.24711,0.436386 0.22939,1.371587 0.31709,1.827222 0.31152,1.018634 0.66094,2.021075 0.96817,3.041336 0.37443,1.072652 0.71967,2.167125 1.22382,3.168643 0.48994,1.002909 0.88426,2.061139 1.34043,3.085252 0,0 3.06653,0.7904 3.06653,0.7904 z"
       inkscape:connector-curvature="0" />
  </g>
</svg>
