<?xml version="1.0" encoding="UTF-8" standalone="no"?>
<!-- Created with Inkscape (http://www.inkscape.org/) -->

<svg
   xmlns:dc="http://purl.org/dc/elements/1.1/"
   xmlns:cc="http://creativecommons.org/ns#"
   xmlns:rdf="http://www.w3.org/1999/02/22-rdf-syntax-ns#"
   xmlns:svg="http://www.w3.org/2000/svg"
   xmlns="http://www.w3.org/2000/svg"
   xmlns:xlink="http://www.w3.org/1999/xlink"
   xmlns:sodipodi="http://sodipodi.sourceforge.net/DTD/sodipodi-0.dtd"
   xmlns:inkscape="http://www.inkscape.org/namespaces/inkscape"
   version="1.1"
   width="539"
   height="469"
   id="svg2"
   inkscape:version="0.48.5 r10040"
   sodipodi:docname="patch.svg">
  <sodipodi:namedview
     pagecolor="#ffffff"
     bordercolor="#666666"
     borderopacity="1"
     objecttolerance="10"
     gridtolerance="10"
     guidetolerance="10"
     inkscape:pageopacity="0"
     inkscape:pageshadow="2"
     inkscape:window-width="1366"
     inkscape:window-height="705"
     id="namedview3279"
     showgrid="false"
     inkscape:zoom="0.472"
     inkscape:cx="538.08144"
     inkscape:cy="360.50092"
     inkscape:window-x="-8"
     inkscape:window-y="-8"
     inkscape:window-maximized="1"
     inkscape:current-layer="svg2" />
  <defs
     id="defs4">
    <inkscape:path-effect
       effect="skeletal"
       id="path-effect4919"
       is_visible="true"
       pattern="M 0,0 1,0"
       copytype="single_stretched"
       prop_scale="1"
       scale_y_rel="false"
       spacing="0"
       normal_offset="0"
       tang_offset="0"
       prop_units="false"
       vertical_pattern="false"
       fuse_tolerance="0" />
    <inkscape:path-effect
       effect="spiro"
       id="path-effect4917"
       is_visible="true" />
  </defs>
  <metadata
     id="metadata7">
    <rdf:RDF>
      <cc:Work
         rdf:about="">
        <dc:format>image/svg+xml</dc:format>
        <dc:type
           rdf:resource="http://purl.org/dc/dcmitype/StillImage" />
        <dc:title />
      </cc:Work>
    </rdf:RDF>
  </metadata>
  <g
     transform="translate(0,-583.36218)"
     id="layer1"
     style="display:none">
    <rect
       width="606.37146"
       height="507.23294"
       x="0.47279033"
       y="549.18726"
       id="rect4036"
       style="fill:#d97925;fill-opacity:1;stroke:none" />
  </g>
  <g
     id="layer2"
     transform="translate(-30,-13)">
    <path
       d="M 330.73439,428.6241 63.225086,428.62409 -70.529556,196.95423 63.225109,-34.715624 l 267.509311,1.3e-5 133.75464,231.669861 z"
       transform="translate(102.72954,51.377128)"
       id="path3757"
       style="fill:#002635;fill-opacity:1;stroke:none"
       inkscape:connector-curvature="0" />
    <path
       d="M 330.73439,428.6241 63.225086,428.62409 -70.529556,196.95423 63.225109,-34.715624 l 267.509311,1.3e-5 133.75464,231.669861 z"
       transform="matrix(0.93562509,0,0,0.93562509,115.28059,65.01037)"
       id="path3757-1"
       style="fill:none;stroke:#d97925;stroke-width:1.0378089;stroke-linecap:round;stroke-linejoin:miter;stroke-miterlimit:4;stroke-opacity:1;stroke-dasharray:1.03780885, 3.11342655;stroke-dashoffset:0"
       inkscape:connector-curvature="0" />
    <path
       d="m 437.88581,197.2654 c 0,76.15224 -61.73358,137.88582 -137.88581,137.88582 -76.15224,0 -137.88582,-61.73358 -137.88582,-137.88582 0,-76.15223 61.73358,-137.88581 137.88582,-137.88581 76.15223,0 137.88581,61.73358 137.88581,137.88581 z"
       id="path3777"
       style="fill:none;stroke:#ffffff;stroke-width:0;stroke-linecap:round;stroke-linejoin:miter;stroke-miterlimit:4;stroke-opacity:1;stroke-dasharray:none;stroke-dashoffset:0"
       inkscape:connector-curvature="0" />
    <text
       transform="matrix(-0.3832599,-0.92364054,0.92364054,-0.3832599,230.35409,560.98636)"
       id="text3919"
       xml:space="preserve"
       style="font-size:36px;font-style:normal;font-variant:normal;font-weight:normal;font-stretch:normal;line-height:125%;letter-spacing:0px;word-spacing:0px;fill:#002635;fill-opacity:1;stroke:#d97925;stroke-width:0.89999998;stroke-miterlimit:4;stroke-opacity:1;stroke-dasharray:none;font-family:Corbel;-inkscape-font-specification:Corbel"
       sodipodi:linespacing="125%"><textPath
         xlink:href="#path3777"
         id="textPath3923"
         style="font-size:24px;fill:#002635;fill-opacity:1;stroke:#d97925;stroke-width:0.89999998;stroke-miterlimit:4;stroke-opacity:1;stroke-dasharray:none">SUMAYAH</textPath></text>
    <text
       x="286.41974"
       y="458.33356"
       id="text3939"
       xml:space="preserve"
       style="font-size:22px;font-style:normal;font-weight:normal;line-height:125%;letter-spacing:0px;word-spacing:0px;fill:#d97925;fill-opacity:1;stroke:none;font-family:Sans"
       sodipodi:linespacing="125%"><tspan
         x="286.41974"
         y="458.33356"
         id="tspan3941"
         style="font-size:12px;font-style:normal;font-variant:normal;font-weight:normal;font-stretch:normal;letter-spacing:0px;fill:#d97925;fill-opacity:1;font-family:Geometr415 Blk BT;-inkscape-font-specification:Geometr415 Blk BT">1989</tspan></text>
    <g
       id="g4038"
       style="fill:#d97925;fill-opacity:1">
      <path
         d="m 137.38074,249.2857 16.24151,-8.01566 2.60445,-17.92356 12.64224,12.96961 17.85115,-3.06171 -8.42817,16.03133 8.42817,16.03132 -17.85115,-3.06171 -12.64225,12.96961 -2.60444,-17.92356 z"
         transform="matrix(0.10573511,-0.14083231,0.14083231,0.10573511,8.4102145,245.40997)"
         id="path3949"
         style="fill:#d97925;fill-opacity:1;stroke:none"
         inkscape:connector-curvature="0" />
      <path
         d="m 137.38074,249.2857 16.24151,-8.01566 2.60445,-17.92356 12.64224,12.96961 17.85115,-3.06171 -8.42817,16.03133 8.42817,16.03132 -17.85115,-3.06171 -12.64225,12.96961 -2.60444,-17.92356 z"
         transform="matrix(0.10573511,-0.14083231,0.14083231,0.10573511,19.096828,245.40997)"
         id="path3949-5"
         style="fill:#d97925;fill-opacity:1;stroke:none"
         inkscape:connector-curvature="0" />
      <path
         d="m 137.38074,249.2857 16.24151,-8.01566 2.60445,-17.92356 12.64224,12.96961 17.85115,-3.06171 -8.42817,16.03133 8.42817,16.03132 -17.85115,-3.06171 -12.64225,12.96961 -2.60444,-17.92356 z"
         transform="matrix(0.10573511,-0.14083231,0.14083231,0.10573511,29.387757,245.40997)"
         id="path3949-51"
         style="fill:#d97925;fill-opacity:1;stroke:none"
         inkscape:connector-curvature="0" />
    </g>
    <g
       id="g4043"
       style="fill:#d97925;fill-opacity:1;stroke:none">
      <path
         d="m 137.38074,249.2857 16.24151,-8.01566 2.60445,-17.92356 12.64224,12.96961 17.85115,-3.06171 -8.42817,16.03133 8.42817,16.03132 -17.85115,-3.06171 -12.64225,12.96961 -2.60444,-17.92356 z"
         transform="matrix(0.10573511,-0.14083231,0.14083231,0.10573511,464.80995,245.33832)"
         id="path3949-7"
         style="fill:#d97925;fill-opacity:1;stroke:none"
         inkscape:connector-curvature="0" />
      <path
         d="m 137.38074,249.2857 16.24151,-8.01566 2.60445,-17.92356 12.64224,12.96961 17.85115,-3.06171 -8.42817,16.03133 8.42817,16.03132 -17.85115,-3.06171 -12.64225,12.96961 -2.60444,-17.92356 z"
         transform="matrix(0.10573511,-0.14083231,0.14083231,0.10573511,475.49656,245.33832)"
         id="path3949-5-1"
         style="fill:#d97925;fill-opacity:1;stroke:none"
         inkscape:connector-curvature="0" />
      <path
         d="m 137.38074,249.2857 16.24151,-8.01566 2.60445,-17.92356 12.64224,12.96961 17.85115,-3.06171 -8.42817,16.03133 8.42817,16.03132 -17.85115,-3.06171 -12.64225,12.96961 -2.60444,-17.92356 z"
         transform="matrix(0.10573511,-0.14083231,0.14083231,0.10573511,485.78749,245.33832)"
         id="path3949-51-1"
         style="fill:#d97925;fill-opacity:1;stroke:none"
         inkscape:connector-curvature="0" />
    </g>
    <path
       d="m 243.043,86.44949 111.3844,0"
       id="path5027"
       style="fill:#d97925;fill-opacity:1;stroke:#d97925;stroke-width:0.19355522;stroke-linecap:butt;stroke-linejoin:miter;stroke-miterlimit:4;stroke-opacity:1;stroke-dasharray:none"
       inkscape:connector-curvature="0" />
    <path
       d="m 195.40914,416.59894 208.03827,0"
       id="path5027-4"
       style="fill:#d97925;fill-opacity:1;stroke:#d97925;stroke-width:0.20900001;stroke-linecap:butt;stroke-linejoin:miter;stroke-miterlimit:4;stroke-opacity:1;stroke-dasharray:none"
       inkscape:connector-curvature="0" />
    <path
       d="M 330.73439,428.6241 63.225086,428.62409 -70.529556,196.95423 63.225109,-34.715624 l 267.509311,1.3e-5 133.75464,231.669861 z"
       transform="matrix(0.99313148,0,0,0.99436854,103.91684,52.454459)"
       id="path3757-1-0"
       style="fill:none;stroke:#d97925;stroke-width:1.87688756;stroke-linecap:round;stroke-linejoin:miter;stroke-miterlimit:4;stroke-opacity:1;stroke-dasharray:1.87688756, 3.75377511;stroke-dashoffset:0"
       inkscape:connector-curvature="0" />
    <text
       x="220.71428"
       y="436.42856"
       id="text5175"
       xml:space="preserve"
       style="font-size:20px;font-style:normal;font-variant:normal;font-weight:normal;font-stretch:normal;line-height:125%;letter-spacing:0.34999999px;word-spacing:0px;fill:#d97925;fill-opacity:1;stroke:none;font-family:Corbel;-inkscape-font-specification:Corbel"
       sodipodi:linespacing="125%"><tspan
         x="220.71428"
         y="436.42856"
         id="tspan5177">AWESOME SINCE</tspan></text>
  </g>
  <g
     id="layer5"
     style="display:inline"
     transform="translate(-30,-13)">
    <path
       d="M 399.99999,182.85713 283.06913,183.22434 341.21655,81.775647 z"
       transform="matrix(-1.2793689,0,0,1.3274332,817.84453,-0.98329523)"
       id="path5088"
       style="fill:#d97925;fill-opacity:1;stroke:#d97925;stroke-width:0.89999998;stroke-linecap:round;stroke-linejoin:round;stroke-miterlimit:4;stroke-opacity:1;stroke-dasharray:none;stroke-dashoffset:0"
       inkscape:connector-curvature="0" />
    <path
       d="M 399.99999,182.85713 283.06913,183.22434 341.21655,81.775647 z"
       transform="matrix(1.2793689,0,0,1.3274332,-220.43265,-0.98329523)"
       id="path5088-9"
       style="fill:#d97925;fill-opacity:1;stroke:#d97925;stroke-width:0.89999998;stroke-linecap:round;stroke-linejoin:round;stroke-miterlimit:4;stroke-opacity:1;stroke-dasharray:none;stroke-dashoffset:0"
       inkscape:connector-curvature="0" />
    <path
       d="M 399.99999,182.85713 283.06913,183.22434 341.21655,81.775647 z"
       transform="matrix(1.2793689,0,0,-1.3274332,-138.14706,350.43967)"
       id="path5088-5"
       style="fill:#d97925;fill-opacity:1;stroke:#d97925;stroke-width:0.89999998;stroke-linecap:round;stroke-linejoin:round;stroke-miterlimit:4;stroke-opacity:1;stroke-dasharray:none;stroke-dashoffset:0"
       inkscape:connector-curvature="0" />
    <path
       d="M 399.99999,182.85713 283.06913,183.22434 341.21655,81.775647 z"
       transform="matrix(-1.2793689,0,0,-1.3274332,817.41415,490.79822)"
       id="path5088-6"
       style="fill:#d97925;fill-opacity:1;stroke:#d9a925;stroke-width:0.90010625;stroke-linecap:round;stroke-linejoin:round;stroke-miterlimit:4;stroke-opacity:1;stroke-dasharray:none;stroke-dashoffset:0"
       inkscape:connector-curvature="0" />
    <path
       d="M 399.99999,182.85713 283.06913,183.22434 341.21655,81.775647 z"
       transform="matrix(1.2793689,0,0,-1.3274332,-220.86303,490.79822)"
       id="path5088-9-8"
       style="fill:#d97925;fill-opacity:1;stroke:#d9a925;stroke-width:0.89999998;stroke-linecap:round;stroke-linejoin:round;stroke-miterlimit:4;stroke-opacity:1;stroke-dasharray:none;stroke-dashoffset:0"
       inkscape:connector-curvature="0" />
    <path
       d="M 399.99999,182.85713 283.06913,183.22434 341.21655,81.775647 z"
       transform="matrix(-1.1096583,0,0,-1.1513468,758.27238,464.42025)"
       id="path5088-6-2"
       style="fill:#d96425;fill-opacity:1;stroke:#d97925;stroke-width:0.90010625;stroke-linecap:round;stroke-linejoin:round;stroke-miterlimit:4;stroke-opacity:1;stroke-dasharray:none;stroke-dashoffset:0"
       inkscape:connector-curvature="0" />
    <path
       d="M 399.99999,182.85713 283.06913,183.22434 341.21655,81.775647 z"
       transform="matrix(-1.1096583,0,0,-1.1513468,594.89221,465.32975)"
       id="path5088-6-2-3"
       style="fill:#d96425;fill-opacity:1;stroke:#d97925;stroke-width:0.90010625;stroke-linecap:round;stroke-linejoin:round;stroke-miterlimit:4;stroke-opacity:1;stroke-dasharray:none;stroke-dashoffset:0"
       inkscape:connector-curvature="0" />
    <path
       d="M 399.99999,182.85713 283.06913,183.22434 341.21655,81.775647 z"
       transform="matrix(-0.23284974,0,0,0.24159762,407.13989,94.62899)"
       id="path5088-1"
       style="fill:#002635;fill-opacity:1;stroke:#001b30;stroke-width:2.16288376;stroke-linecap:round;stroke-linejoin:round;stroke-miterlimit:4;stroke-opacity:1;stroke-dasharray:none;stroke-dashoffset:0;display:inline"
       inkscape:connector-curvature="0" />
    <path
       d="M 399.99999,182.85713 283.06913,183.22434 341.21655,81.775647 z"
       transform="matrix(-0.23284974,0,0,-0.24159762,392.06473,158.65235)"
       id="path5088-1-9"
       style="fill:#002635;fill-opacity:1;stroke:#001b30;stroke-width:2.16288376;stroke-linecap:round;stroke-linejoin:round;stroke-miterlimit:4;stroke-opacity:1;stroke-dasharray:none;stroke-dashoffset:0;display:inline"
       inkscape:connector-curvature="0" />
    <path
       d="M 399.99999,182.85713 283.06913,183.22434 341.21655,81.775647 z"
       transform="matrix(-0.23284974,0,0,0.24159762,377.29974,94.62899)"
       id="path5088-1-6"
       style="fill:#002635;fill-opacity:1;stroke:#001b30;stroke-width:2.16288376;stroke-linecap:round;stroke-linejoin:round;stroke-miterlimit:4;stroke-opacity:1;stroke-dasharray:none;stroke-dashoffset:0;display:inline"
       inkscape:connector-curvature="0" />
    <path
       d="M 399.99999,182.85713 283.06913,183.22434 341.21655,81.775647 z"
       transform="matrix(-0.23284974,0,0,-0.24159762,362.47987,158.56364)"
       id="path5088-1-9-1"
       style="fill:#002635;fill-opacity:1;stroke:#001b30;stroke-width:2.16288376;stroke-linecap:round;stroke-linejoin:round;stroke-miterlimit:4;stroke-opacity:1;stroke-dasharray:none;stroke-dashoffset:0;display:inline"
       inkscape:connector-curvature="0" />
    <path
       d="M 399.99999,182.85713 283.06913,183.22434 341.21655,81.775647 z"
       transform="matrix(-0.23284974,0,0,0.24159762,347.49531,94.62899)"
       id="path5088-1-96"
       style="fill:#002635;fill-opacity:1;stroke:#001b30;stroke-width:2.16288376;stroke-linecap:round;stroke-linejoin:round;stroke-miterlimit:4;stroke-opacity:1;stroke-dasharray:none;stroke-dashoffset:0;display:inline"
       inkscape:connector-curvature="0" />
    <path
       d="M 399.99999,182.85713 283.06913,183.22434 341.21655,81.775647 z"
       transform="matrix(-0.93399238,0,0,-0.96908133,699.61316,431.22129)"
       id="path5088-6-2-0"
       style="fill:#d96425;fill-opacity:1;stroke:#d97925;stroke-width:0.90010625;stroke-linecap:round;stroke-linejoin:round;stroke-miterlimit:4;stroke-opacity:1;stroke-dasharray:none;stroke-dashoffset:0;display:inline"
       inkscape:connector-curvature="0" />
    <path
       d="M 399.99999,182.85713 283.06913,183.22434 341.21655,81.775647 z"
       transform="matrix(-0.93399238,0,0,-0.96908133,534.70497,431.93428)"
       id="path5088-6-2-0-1"
       style="fill:#d96425;fill-opacity:1;stroke:#d97925;stroke-width:0.90010625;stroke-linecap:round;stroke-linejoin:round;stroke-miterlimit:4;stroke-opacity:1;stroke-dasharray:none;stroke-dashoffset:0;display:inline"
       inkscape:connector-curvature="0" />
    <path
       d="M 399.99999,182.85713 283.06913,183.22434 341.21655,81.775647 z"
       transform="matrix(-0.76428183,0,0,-0.79299496,642.10009,399.02265)"
       id="path5088-6-2-0-0"
       style="fill:#d96425;fill-opacity:1;stroke:#d97925;stroke-width:0.90010625;stroke-linecap:round;stroke-linejoin:round;stroke-miterlimit:4;stroke-opacity:1;stroke-dasharray:none;stroke-dashoffset:0;display:inline"
       inkscape:connector-curvature="0" />
    <path
       d="M 399.99999,182.85713 283.06913,183.22434 341.21655,81.775647 z"
       transform="matrix(-0.76428183,0,0,-0.79299496,476.8858,399.67097)"
       id="path5088-6-2-0-0-4"
       style="fill:#d96425;fill-opacity:1;stroke:#d97925;stroke-width:0.90010625;stroke-linecap:round;stroke-linejoin:round;stroke-miterlimit:4;stroke-opacity:1;stroke-dasharray:none;stroke-dashoffset:0;display:inline"
       inkscape:connector-curvature="0" />
  </g>
</svg>
